<svg width="171" height="24" viewBox="0 0 171 24" fill="none" xmlns="http://www.w3.org/2000/svg">
<path d="M33.239 5.07703C35.589 5.07703 37.536 6.10603 38.344 6.87703L36.985 8.53003C36.325 7.94203 34.855 7.13403 33.239 7.13403C30.264 7.13403 28.428 9.19103 28.428 11.982C28.428 14.773 30.191 16.83 33.276 16.83C35.076 16.83 36.618 15.875 37.316 15.214L38.6 16.94C37.792 17.785 35.772 18.924 33.275 18.924C28.905 18.924 26.223 15.985 26.223 12.019C26.186 8.01503 28.942 5.07703 33.239 5.07703ZM46.755 5.07703C50.795 5.07703 53.733 8.01503 53.733 11.982C53.733 15.985 50.795 18.887 46.755 18.887C42.715 18.887 39.777 15.949 39.777 11.982C39.74 8.01503 42.678 5.07703 46.755 5.07703ZM46.755 16.83C49.51 16.83 51.53 14.773 51.53 11.982C51.53 9.19103 49.51 7.13403 46.755 7.13403C44 7.13403 41.98 9.19103 41.98 11.982C41.98 14.773 44 16.83 46.755 16.83ZM67.616 14.773C67.616 16.72 66.366 18.593 63.135 18.593H56.083V5.37103H62.731C65.411 5.37103 66.954 7.02403 66.954 8.89703C66.954 9.96203 66.477 10.917 65.302 11.688C66.477 12.092 67.616 12.974 67.616 14.773ZM58.25 7.46503V10.991L62.437 10.954C63.943 10.954 64.714 10.109 64.714 9.15403C64.714 8.23603 64.053 7.46403 62.731 7.46403L58.25 7.46503ZM63.282 16.536C64.824 16.536 65.412 15.692 65.412 14.773C65.412 13.782 64.714 12.973 63.318 12.973H58.287V16.573H63.282V16.536ZM76.32 11.798L82.197 18.629H79.295L74.41 12.863H71.913V18.629H69.746V5.40703H71.913V10.88H74.411L79.185 5.40703H82.087L76.32 11.797V11.798Z" fill="#21409A"/>
<path d="M88.8813 5.07703C92.9213 5.07703 95.8593 8.01503 95.8593 11.982C95.8593 15.985 92.9213 18.887 88.8813 18.887C84.8413 18.887 81.9023 15.949 81.9023 11.982C81.9023 8.01503 84.8413 5.07703 88.8813 5.07703ZM88.8813 16.83C91.6353 16.83 93.6553 14.773 93.6553 11.982C93.6553 9.19103 91.6353 7.13403 88.8813 7.13403C86.1263 7.13403 84.1063 9.19103 84.1063 11.982C84.1063 14.773 86.1633 16.83 88.8813 16.83ZM110.514 5.37103H112.607V18.593H110.44V8.78703L106.106 14.59H104.784L100.45 8.78703V18.63H98.2833V5.40803H100.377L105.445 12.203L110.514 5.37103ZM122.56 10.77C125.461 10.77 127.04 12.46 127.04 14.663C127.04 16.867 125.461 18.593 122.706 18.593H115.508V5.37103H125.792V7.46503H117.675V10.807H122.56V10.77ZM122.633 16.536C124.139 16.536 124.837 15.692 124.837 14.7C124.837 13.708 124.139 12.864 122.633 12.864H117.711V16.536H122.633ZM139.161 18.593L137.728 15.288H131.485L130.052 18.593H127.665L133.395 5.37103H135.782L141.511 18.593H139.161ZM132.293 13.304H136.847L134.57 8.01503L132.293 13.305V13.304ZM152.97 5.37103H155.137V18.593H152.97V12.937H145.331V18.593H143.164V5.37103H145.331V10.844H152.97V5.37103ZM164.687 11.798L170.563 18.629H167.662L162.777 12.863H160.279V18.629H158.112V5.40703H160.279V10.88H162.777L167.551 5.40703H170.453L164.687 11.797V11.798Z" fill="#21409A"/>
<path d="M0 11.982C0 18.042 4.922 22.963 10.982 22.963H11.422V18.813H10.982C7.235 18.813 4.15 15.765 4.15 11.982C4.15 8.235 7.199 5.15 10.982 5.15H11.422V1H10.982C4.922 1 0 5.922 0 11.982Z" fill="#F04E53"/>
<path d="M13.1841 1.21997V6.94997H10.9801C9.63671 6.95288 8.34918 7.4879 7.39935 8.43792C6.44952 9.38794 5.91475 10.6756 5.91211 12.019C5.91502 13.3624 6.45004 14.6499 7.40006 15.5997C8.35008 16.5496 9.63771 17.0843 10.9811 17.087H13.1841V22.817C15.6653 22.3133 17.8955 20.966 19.4957 19.0041C21.0959 17.0422 21.9674 14.5867 21.9621 12.055C21.9991 6.65597 18.2161 2.24897 13.1841 1.21997Z" fill="#21409A"/>
</svg>
